<svg width="354" height="100" viewBox="0 0 354 100" fill="none" xmlns="http://www.w3.org/2000/svg">
<g clip-path="url(#clip0_40_154)">
<path d="M155.468 0.173706C142.775 6.87051 134.18 19.6648 134.101 34.3546L124.325 17.3829L115.756 22.3368L128.251 44.0212H139.672C139.672 29.5709 148.521 17.0159 161.518 10.6666L155.468 0.173706Z" fill="#6FE200"/>
<path d="M145.296 82.3014C144.007 87.5425 140.973 90.7854 135.821 90.7854C128.309 90.7854 124.911 84.6879 124.911 77.8971L158.155 77.8847V75.6808C158.155 59.8067 150.153 50.4805 134.911 50.4805C119.67 50.4805 110.266 60.3812 110.266 75.0727C110.266 89.7642 118.555 99.8244 135.548 99.8244C147.643 99.8244 154.413 93.8741 157.365 86.7305L145.296 82.2996V82.3014ZM134.975 58.6241C140.873 58.6241 143.425 61.945 143.616 70.8564H125.251C125.76 62.2322 129.014 58.6241 134.975 58.6241Z" fill="#FFF2EC"/>
<path d="M35.8266 82.3014C34.538 87.5425 31.5042 90.7854 26.3518 90.7854C18.8399 90.7854 15.4415 84.6879 15.4415 77.8971L48.6856 77.8847V75.6808C48.6856 59.8067 40.6835 50.4805 25.442 50.4805C10.2005 50.4805 0.796509 60.3812 0.796509 75.0727C0.796509 89.7642 9.08542 99.8244 26.0792 99.8244C38.1736 99.8244 44.9439 93.8741 47.8962 86.7305L35.8266 82.2996V82.3014ZM25.5057 58.6241C31.4034 58.6241 33.9557 61.945 34.1468 70.8564H15.7813C16.2911 62.2322 19.5443 58.6241 25.5057 58.6241Z" fill="#FFF2EC"/>
<path d="M105.931 90.4309C104.557 90.4309 103.444 89.3156 103.444 87.9397V33.8068C101.278 34.3493 96.9748 34.828 92.0984 34.828H82.9528V42.8405H86.1388C87.5123 42.8405 88.6257 43.9557 88.6257 45.3316V57.7394C85.9087 53.2766 81.2536 50.5213 73.7223 50.5373C60.9464 50.5639 53.1991 61.5834 52.7761 75.1578C52.3548 88.7323 60.8367 99.8529 73.4355 99.8263C82.6077 99.8068 87.2433 95.8919 89.5868 89.8848C89.8417 93.6241 90.1868 97.5585 90.3143 98.4451H108.575V90.4326H105.931V90.4309ZM79.4341 90.5408C69.1574 90.5408 68.1556 80 68.1556 74.3688C68.1556 64.6135 72.2142 59.8014 78.5384 59.7961C84.6379 59.7908 88.8398 64.5142 88.8398 74.3529C88.8398 84.1915 85.5866 90.5408 79.4341 90.5408Z" fill="#FFF2EC"/>
<path d="M340.364 82.3315L340.366 82.3325L340.367 82.3315H340.364Z" fill="#FFF2EC"/>
<path d="M353.203 75.7216C353.203 59.8741 345.214 50.5638 329.999 50.5638C314.784 50.5638 305.394 60.4486 305.394 75.1153C305.394 89.7819 313.669 99.8263 330.634 99.8263C342.709 99.8263 349.467 93.8848 352.414 86.7553L340.366 82.3322C339.08 87.5641 336.05 90.8014 330.907 90.8014C323.407 90.8014 320.016 84.7128 320.016 77.9344L353.203 77.922V75.7216ZM320.356 70.906C320.866 62.2965 324.111 58.6936 330.063 58.6933C330.063 58.6933 330.063 58.6933 330.063 58.6933H330.064C330.064 58.6933 330.064 58.6933 330.063 58.6933C335.952 58.6936 338.498 62.0093 338.689 70.906H320.356Z" fill="#FFF2EC"/>
<path d="M330.062 58.6932L330.064 58.6933L330.065 58.6932H330.062Z" fill="#FFF2EC"/>
<path d="M305.68 42.5552L305.677 42.5543V42.5579L305.68 42.5552Z" fill="#FFF2EC"/>
<path d="M295.857 50.9095C295.496 43.7304 297.047 42.0531 301.941 41.945C302.095 41.9414 302.272 41.945 302.465 41.9538C303.252 41.984 304.979 42.2867 305.677 42.5543V34.8687C304.373 34.1684 301.033 33.1471 297.183 33.1471C286.143 33.1471 281.595 37.3226 281.595 49.3049V51.8226H275.486V59.8226H281.595V87.9184C281.595 89.2942 280.48 90.4095 279.106 90.4095H276.216V98.4219H301.031V90.4095H298.618C297.245 90.4095 296.132 89.2942 296.132 87.9184V59.8226H304.056V51.8226H295.88C295.871 51.6861 295.864 51.0407 295.857 50.9095Z" fill="#FFF2EC"/>
<path d="M260.804 48.4433C265.863 48.4433 269.394 44.8422 269.394 40.2216C269.394 35.6011 265.863 32.0638 260.804 32.0638C255.746 32.0638 252.151 35.6649 252.151 40.2216C252.151 44.7783 255.554 48.4433 260.804 48.4433Z" fill="#FFF2EC"/>
<path d="M270.766 90.4095C269.392 90.4095 268.279 89.2943 268.279 87.9184V50.7411C266.114 51.2836 261.811 51.7624 256.935 51.7624H247.789V59.7748H250.975C252.349 59.7748 253.462 60.89 253.462 62.2659L253.453 87.9184C253.453 89.2943 252.34 90.4095 250.967 90.4095H248.076V98.4219H273.178V90.4095H270.766Z" fill="#FFF2EC"/>
<path d="M216.705 90.4095C215.405 90.4095 214.324 89.4078 214.225 88.1081L212.706 68.2872C211.536 56.4876 203.888 50.4095 197.537 50.4095C190.144 50.4095 183.944 53.3776 180.979 59.4752V50.633C178.749 51.1755 174.446 51.7181 169.633 51.7181H161.029V59.7305H163.865C165.238 59.7305 166.352 60.8457 166.352 62.2216V87.9166C166.352 89.2925 165.238 90.4078 163.865 90.4078H161.029V98.4202H186.015V90.4078H183.657C182.283 90.4078 181.17 89.2925 181.17 87.9166V73.4893C181.17 64.0727 185.3 59.922 191.004 59.922C193.413 59.922 197.362 62.0957 197.888 68.5727L199.415 87.7181C199.53 89.1684 198.389 90.4078 196.936 90.4078H194.571V98.4202H219.767V90.4095H216.705Z" fill="#FFF2EC"/>
<path d="M242.628 90.4096C241.255 90.4096 240.141 89.2944 240.141 87.9185V33.9451C237.976 34.4876 233.674 34.9663 228.797 34.9663H219.652V42.9787H222.838C224.211 42.9787 225.325 44.094 225.325 45.4699L225.316 87.9185C225.316 89.2943 224.202 90.4096 222.829 90.4096H219.767V98.4202H245.041V90.4078H242.628L242.628 90.4096Z" fill="#FFF2EC"/>
</g>
<defs>
<clipPath id="clip0_40_154">
<rect width="354" height="100" fill="white"/>
</clipPath>
</defs>
</svg>
