<svg width="389" height="194" viewBox="0 0 389 194" fill="none" xmlns="http://www.w3.org/2000/svg">
<path d="M51.7919 91.389L42.1012 90.4703C41.8521 92.3076 41.6279 94.2937 41.4037 96.4537C41.1794 98.6137 40.9801 100.798 40.8058 103.033C40.6314 105.267 40.457 107.452 40.3075 109.612C40.1581 111.772 40.0086 113.758 39.884 115.596C35.1508 116.018 30.3926 116.44 25.6344 116.787C20.8762 117.16 16.0682 117.433 11.2851 117.607C11.3349 115.571 11.4097 113.411 11.4595 111.127C11.5093 108.818 11.609 106.484 11.7335 104.101C11.8581 101.717 11.9826 99.3337 12.157 96.9751C12.3065 94.6165 12.4809 92.4069 12.6553 90.3959L3.13891 89.7504C2.88979 91.9103 2.69049 94.1944 2.54102 96.6027C2.39155 99.0357 2.24208 101.469 2.11752 103.952C1.99296 106.434 1.89331 108.892 1.84348 111.3C1.79366 113.733 1.71892 115.993 1.6691 118.053H0.847006C0.597887 118.053 0.323855 118.103 0 118.227L0.373679 127.239H1.6691C1.79366 131.46 1.94313 135.755 2.11752 140.075C2.2919 144.395 2.56593 148.69 2.93961 152.911L12.5307 152.166C12.1072 147.945 11.8083 143.7 11.6588 139.43C11.5093 135.159 11.3598 130.914 11.2353 126.693C15.9686 126.495 20.6769 126.271 25.3604 125.948C30.0438 125.651 34.6774 125.278 39.2861 124.856C39.2363 127.066 39.1616 129.449 39.1118 131.981C39.0619 134.539 38.9872 137.096 38.9374 139.653C38.8875 142.235 38.8377 144.792 38.8377 147.35V154.475L48.5285 154.376C48.4039 149.584 48.4039 144.519 48.5285 139.157C48.653 133.794 48.8523 128.357 49.1264 122.87C49.4004 117.383 49.7741 111.946 50.2225 106.583C50.6709 101.221 51.194 96.1558 51.7421 91.3641L51.7919 91.389Z" fill="#0C4C3B"/>
<path d="M86.5441 121.753C84.8501 119.171 82.8073 117.209 80.4407 115.869C78.074 114.528 75.5081 113.709 72.7429 113.485C69.9776 113.237 67.2622 113.51 64.6216 114.305C61.9809 115.099 59.5146 116.415 57.2726 118.252C55.0305 120.089 53.2617 122.398 51.9663 125.154C51.0944 126.991 50.5712 128.977 50.347 131.137C50.1228 133.297 50.1976 135.408 50.5712 137.493C50.9449 139.579 51.6175 141.59 52.614 143.526C53.5856 145.463 54.881 147.151 56.5003 148.641C58.1694 150.23 60.0627 151.496 62.23 152.414C64.3725 153.333 66.5896 153.904 68.8317 154.127C71.0738 154.351 73.3158 154.177 75.533 153.681C77.7502 153.159 79.768 152.216 81.6115 150.875C83.0813 149.783 84.3518 148.467 85.448 146.977C86.5192 145.488 87.3911 143.874 88.0637 142.186C88.7363 140.497 89.2097 138.735 89.5086 136.897C89.7826 135.06 89.8574 133.223 89.7328 131.386C89.3093 127.587 88.2381 124.384 86.5441 121.827V121.753ZM80.7147 134.439C80.4905 135.855 80.0919 137.195 79.4691 138.486C78.4975 140.497 77.0277 142.061 75.0846 143.179C73.1415 144.296 71.1734 144.817 69.1306 144.743C67.1128 144.693 65.2444 144.023 63.6002 142.757C61.9311 141.49 60.8599 139.529 60.3616 136.823C59.988 134.613 60.1623 132.379 60.8599 130.095C61.5574 127.835 62.8528 126.048 64.6963 124.757C66.4651 123.54 68.458 122.82 70.6004 122.597C72.7678 122.373 74.6611 122.771 76.3302 123.739C77.5509 124.484 78.5474 125.427 79.2947 126.594C80.0421 127.761 80.5154 129.002 80.7147 130.318C80.9389 131.634 80.9389 132.999 80.7147 134.415V134.439Z" fill="#0C4C3B"/>
<path d="M158.465 141.987C158.241 139.157 157.892 136.376 157.394 133.57C156.895 130.79 156.198 128.183 155.276 125.8C154.354 123.416 153.134 121.306 151.639 119.493C150.119 117.681 148.276 116.34 146.059 115.496C144.141 114.751 142.247 114.478 140.329 114.677C138.411 114.851 136.617 115.372 134.923 116.241C133.229 117.11 131.709 118.227 130.364 119.593C129.019 120.983 127.973 122.522 127.225 124.235C125.98 120.685 124.161 118.202 121.695 116.787C119.229 115.372 116.638 114.851 113.947 115.223C111.232 115.596 108.691 116.738 106.274 118.674C103.858 120.611 102.114 123.093 101.018 126.172L100.271 110.63L90.5798 111.077L92.6973 155.518L105.801 154.599C105.427 151.421 105.353 148.219 105.527 145.041C105.701 141.863 106.225 138.784 107.096 135.855C107.968 133.024 109.04 130.74 110.385 129.002C111.705 127.264 113.025 126.246 114.346 125.973C115.666 125.7 116.887 126.271 117.983 127.686C119.104 129.102 119.901 131.584 120.375 135.135C120.549 136.674 120.723 138.312 120.823 140.05C120.947 141.788 121.047 143.551 121.097 145.289C121.147 147.027 121.197 148.715 121.246 150.304C121.271 151.893 121.296 153.308 121.296 154.55L131.087 154.177C131.261 151.471 131.535 148.814 131.934 146.208C132.307 143.601 132.731 140.944 133.229 138.263C133.902 134.936 134.898 132.106 136.243 129.747C137.564 127.389 138.959 125.899 140.454 125.278C141.923 124.658 143.343 125.129 144.689 126.693C146.034 128.257 147.055 131.286 147.728 135.755C147.977 137.419 148.201 139.231 148.425 141.217C148.65 143.203 148.824 145.214 148.924 147.201C149.048 149.187 149.148 151.099 149.247 152.936C149.347 154.773 149.372 156.337 149.372 157.628L158.963 157.454C158.913 155.294 158.863 152.911 158.814 150.23C158.789 147.573 158.664 144.817 158.44 141.987H158.465Z" fill="#0C4C3B"/>
<path d="M183.975 145.761C181.758 146.307 179.715 146.381 177.846 145.984C175.978 145.587 174.359 144.718 173.038 143.377C171.718 142.037 170.871 140.199 170.497 137.866C172.166 138.114 173.935 138.213 175.804 138.188C177.672 138.164 179.515 137.965 181.334 137.642C183.153 137.295 184.896 136.773 186.59 136.028C188.284 135.284 189.804 134.365 191.149 133.273C193.242 131.485 194.587 129.399 195.21 127.016C195.833 124.633 195.783 122.324 195.11 120.114C194.363 117.731 193.242 115.893 191.747 114.627C190.228 113.361 188.534 112.542 186.615 112.145C184.722 111.747 182.704 111.723 180.562 112.095C178.444 112.467 176.377 113.063 174.433 113.932C171.045 115.397 168.23 117.557 165.988 120.412C163.746 123.267 162.202 126.371 161.38 129.747C160.557 133.124 160.458 136.55 161.106 140.001C161.753 143.452 163.273 146.58 165.664 149.336C167.707 151.67 170.074 153.358 172.764 154.401C175.48 155.443 178.27 155.915 181.11 155.816C183.975 155.716 186.765 155.17 189.505 154.103C192.245 153.06 194.637 151.645 196.655 149.857L190.576 142.583C188.359 144.122 186.142 145.165 183.925 145.711L183.975 145.761ZM175.256 124.36C176.576 123.218 178.12 122.473 179.914 122.1C181.384 121.802 182.629 121.852 183.651 122.274C184.672 122.696 185.27 123.267 185.494 123.987C185.719 124.682 185.42 125.452 184.622 126.246C183.825 127.041 182.306 127.686 180.088 128.183C178.668 128.481 177.273 128.655 175.878 128.68C174.483 128.704 173.113 128.63 171.768 128.456C172.739 126.867 173.91 125.502 175.231 124.36H175.256Z" fill="#0C4C3B"/>
<path d="M264.889 141.987C264.665 139.157 264.316 136.376 263.817 133.57C263.319 130.79 262.622 128.183 261.7 125.8C260.778 123.416 259.558 121.306 258.063 119.493C256.543 117.681 254.7 116.34 252.483 115.496C250.564 114.751 248.671 114.478 246.753 114.677C244.835 114.851 243.041 115.372 241.347 116.241C239.653 117.11 238.133 118.227 236.788 119.593C235.443 120.983 234.396 122.522 233.649 124.235C232.404 120.685 230.585 118.202 228.119 116.787C225.652 115.372 223.062 114.851 220.371 115.223C217.656 115.596 215.115 116.738 212.698 118.674C210.282 120.611 208.538 123.093 207.442 126.172L206.694 110.63L197.004 111.077L199.121 155.518L212.225 154.599C211.851 151.421 211.776 148.219 211.951 145.041C212.125 141.863 212.648 138.784 213.52 135.855C214.367 133.024 215.463 130.74 216.809 129.002C218.129 127.264 219.449 126.246 220.77 125.973C222.09 125.7 223.311 126.271 224.407 127.686C225.528 129.102 226.325 131.584 226.798 135.135C226.973 136.674 227.147 138.312 227.247 140.05C227.371 141.788 227.471 143.551 227.521 145.289C227.571 147.027 227.62 148.715 227.67 150.304C227.695 151.893 227.72 153.308 227.72 154.55L237.51 154.177C237.685 151.471 237.984 148.814 238.357 146.208C238.731 143.601 239.155 140.944 239.653 138.263C240.326 134.936 241.322 132.106 242.667 129.747C243.988 127.389 245.383 125.899 246.877 125.278C248.347 124.658 249.767 125.129 251.137 126.693C252.483 128.257 253.504 131.286 254.177 135.755C254.426 137.419 254.65 139.231 254.874 141.217C255.098 143.203 255.273 145.214 255.372 147.201C255.497 149.187 255.597 151.099 255.696 152.936C255.796 154.773 255.821 156.337 255.821 157.628L265.412 157.454C265.362 155.294 265.312 152.911 265.262 150.23C265.237 147.573 265.113 144.817 264.889 141.987Z" fill="#0C4C3B"/>
<path d="M279.288 155.965C281.48 156.635 283.647 157.082 285.79 157.256C289.178 157.554 292.391 157.479 295.431 157.032C298.47 156.585 301.484 155.816 304.424 154.773L310.328 155.319C310.328 153.482 310.428 151.347 310.602 148.889C310.777 146.431 310.926 143.824 311.026 141.068C311.125 138.313 311.15 135.457 311.125 132.478C311.1 129.499 310.901 126.619 310.527 123.838C310.154 121.058 309.581 118.401 308.784 115.918C307.986 113.436 306.865 111.251 305.47 109.389C304.05 107.527 302.282 106.037 300.164 104.92C298.047 103.803 295.456 103.256 292.441 103.256C289.676 103.256 287.16 103.827 284.918 104.994C282.676 106.161 280.658 107.651 278.914 109.488C277.17 111.325 275.676 113.386 274.48 115.695C273.284 118.004 272.337 120.313 271.665 122.647L280.807 125.229C281.306 123.813 281.829 122.498 282.377 121.231C282.925 119.965 283.548 118.823 284.22 117.78C285.267 116.117 286.487 114.9 287.858 114.156C289.253 113.386 290.648 113.014 292.068 113.038C293.488 113.063 294.833 113.535 296.078 114.429C297.349 115.323 298.37 116.589 299.168 118.252C300.039 120.164 300.588 122.175 300.837 124.31C301.086 126.47 301.21 128.481 301.21 130.368C297.2 128.903 292.989 127.96 288.555 127.513C284.121 127.091 279.96 127.637 276.099 129.176C273.135 130.343 270.917 131.932 269.398 133.968C267.878 136.004 267.056 138.139 266.857 140.398C266.682 142.657 267.106 144.917 268.202 147.151C269.273 149.385 270.942 151.347 273.234 152.985C275.078 154.276 277.096 155.245 279.288 155.94V155.965ZM278.964 138.586C280.259 137.543 282.626 137.022 286.064 137.022C288.829 136.897 291.47 137.195 294.011 137.94C296.527 138.685 298.993 139.628 301.385 140.795V143.278C301.385 144.072 301.335 144.867 301.21 145.661C298.869 146.406 296.552 146.977 294.285 147.374C292.018 147.772 289.751 147.921 287.559 147.797C284.793 147.623 282.501 146.952 280.733 145.761C278.939 144.594 277.893 143.377 277.544 142.086C277.195 140.795 277.693 139.628 278.964 138.586Z" fill="#0C4C3B"/>
<path d="M346.276 123.044C348.543 121.629 350.661 119.791 352.604 117.507C354.547 115.248 356.191 112.815 357.586 110.233C358.956 107.651 360.003 105.069 360.725 102.512C361.422 99.9296 361.672 97.5958 361.422 95.5103C361.099 92.0097 360.152 89.4525 358.558 87.7891C356.963 86.1256 355.145 85.2815 353.102 85.207C351.084 85.1574 348.991 85.8277 346.874 87.2429C344.756 88.658 343.013 90.669 341.667 93.3007C340.496 95.4607 339.575 97.72 338.902 100.103C338.229 102.487 337.706 104.92 337.333 107.427C336.959 109.91 336.71 112.393 336.585 114.876C336.461 117.358 336.411 119.742 336.411 122.001C334.244 121.082 332.151 120.586 330.083 120.487C328.016 120.387 326.048 120.636 324.179 121.231C322.311 121.827 320.567 122.671 318.973 123.813C317.378 124.955 315.983 126.321 314.812 127.91C313.517 129.697 312.57 131.659 311.947 133.844C311.325 136.028 311.075 138.188 311.15 140.373C311.25 142.533 311.673 144.643 312.446 146.679C313.218 148.715 314.289 150.478 315.634 152.017C317.303 153.854 319.172 155.121 321.264 155.791C323.357 156.461 325.499 156.734 327.692 156.585C329.884 156.436 332.001 155.915 334.069 155.071C336.137 154.202 337.955 153.159 339.55 151.943C340.222 155.269 340.995 158.497 341.867 161.7C342.739 164.878 343.785 168.105 345.006 171.358L354.248 168.056C351.483 160.086 349.465 152.439 348.194 145.14C346.924 137.841 346.301 130.467 346.301 123.069L346.276 123.044ZM347.198 109.116C347.322 108.346 347.447 107.601 347.571 106.856C348.244 102.934 349.39 99.4827 350.984 96.4538C351.283 95.9572 351.508 95.7834 351.632 95.9076C351.757 96.0317 351.806 96.2552 351.806 96.5531C351.806 99.3089 351.383 101.965 350.561 104.523C349.739 107.08 348.493 109.314 346.824 111.276C346.949 110.605 347.073 109.885 347.198 109.116ZM333.994 144.867C332.325 146.208 330.582 147.077 328.738 147.449C327.019 147.747 325.574 147.573 324.403 146.952C323.232 146.307 322.336 145.388 321.688 144.197C321.04 143.005 320.691 141.664 320.617 140.199C320.567 138.735 320.766 137.295 321.264 135.929C321.763 134.539 322.51 133.322 323.531 132.255C324.553 131.187 325.848 130.492 327.443 130.169C329.037 129.871 330.706 130.12 332.425 130.914C334.144 131.708 335.688 133.099 337.034 135.06C337.084 135.979 337.183 136.922 337.308 137.915C337.432 138.908 337.557 139.877 337.681 140.87C336.884 142.21 335.639 143.576 333.994 144.917V144.867Z" fill="#0C4C3B"/>
<path d="M358.309 120.412C356.066 123.267 354.522 126.371 353.7 129.747C352.878 133.124 352.778 136.55 353.426 140.001C354.073 143.452 355.593 146.58 357.985 149.336C360.027 151.669 362.394 153.358 365.085 154.4C367.8 155.443 370.59 155.915 373.43 155.816C376.295 155.716 379.085 155.17 381.825 154.103C384.566 153.06 386.957 151.645 388.975 149.857L382.897 142.583C380.679 144.122 378.462 145.165 376.245 145.711C374.028 146.257 371.985 146.332 370.117 145.934C368.248 145.537 366.629 144.668 365.309 143.328C363.988 141.987 363.141 140.15 362.768 137.816C364.437 138.064 366.206 138.163 368.074 138.139C369.942 138.114 371.786 137.915 373.604 137.592C375.423 137.245 377.167 136.723 378.861 135.979C380.555 135.234 382.075 134.315 383.42 133.223C385.512 131.435 386.858 129.35 387.48 126.966C388.103 124.583 388.053 122.274 387.381 120.064C386.633 117.681 385.512 115.844 384.018 114.578C382.498 113.311 380.804 112.492 378.886 112.095C376.992 111.698 374.975 111.673 372.832 112.045C370.715 112.418 368.647 113.013 366.704 113.882C363.316 115.347 360.501 117.507 358.259 120.362L358.309 120.412ZM367.551 124.36C368.871 123.217 370.416 122.473 372.209 122.1C373.679 121.802 374.925 121.852 375.946 122.274C376.968 122.696 377.565 123.267 377.79 123.987C377.989 124.682 377.715 125.452 376.918 126.246C376.121 127.041 374.601 127.686 372.384 128.183C370.964 128.481 369.569 128.655 368.174 128.679C366.779 128.704 365.408 128.63 364.063 128.456C365.035 126.867 366.206 125.502 367.526 124.36H367.551Z" fill="#0C4C3B"/>
<path d="M279.238 178.657C277.37 178.657 276.099 179.526 275.426 181.015V174.784C274.928 174.883 273.882 175.007 272.786 175.007H270.992V176.695H272.038C272.337 176.695 272.412 176.82 272.412 177.366V186.155C272.412 188.464 272.362 189.407 272.288 189.854H274.007C274.281 189.01 274.555 188.166 274.829 187.297C275.451 189.059 276.946 190.127 279.113 190.127C282.103 190.127 284.021 187.843 284.021 184.392C284.021 180.941 282.178 178.657 279.238 178.657ZM280.882 184.566C280.882 186.974 279.811 188.24 278.142 188.24C276.473 188.24 275.426 186.999 275.426 184.566V184.218C275.426 181.785 276.523 180.544 278.142 180.544C279.761 180.544 280.882 181.81 280.882 184.218V184.566Z" fill="#0C4C3B"/>
<path d="M292.018 180.618H292.915C293.288 180.618 293.537 180.817 293.338 181.313L291.171 186.552L288.779 181.288C288.63 180.941 288.729 180.643 289.153 180.643H290V178.955H284.22V180.643H284.968C285.267 180.643 285.366 180.742 285.591 181.214L289.502 189.655V189.705L289.377 190.028C288.779 191.443 288.082 192.188 287.06 192.262C287.285 191.865 287.409 191.468 287.409 191.145C287.409 190.326 286.811 189.73 285.84 189.73C284.694 189.73 283.971 190.499 283.971 191.666C283.971 193.156 285.192 194 286.886 194C289.253 194 290.374 192.709 291.569 189.829L295.182 181.189C295.406 180.668 295.505 180.618 295.854 180.618H296.726V178.93H292.043V180.618H292.018Z" fill="#0C4C3B"/>
<path d="M307.613 178.657C304.25 178.657 301.933 180.99 301.933 184.392C301.933 187.793 303.926 190.127 307.912 190.127C310.727 190.127 312.221 188.737 312.819 186.999L311.1 186.229C310.577 187.545 309.68 188.339 308.136 188.339C306.093 188.339 305.097 186.999 305.022 184.963H312.969V184.392C312.969 180.792 311.05 178.657 307.613 178.657ZM304.997 183.448C305.121 181.288 306.043 180.395 307.613 180.395C309.182 180.395 309.905 181.264 309.929 183.448H304.997Z" fill="#0C4C3B"/>
<path d="M325.475 187.57V174.759C324.976 174.858 323.98 174.982 322.884 174.982H321.015V176.671H322.062C322.361 176.671 322.435 176.795 322.435 177.341V180.842C321.812 179.426 320.592 178.657 318.723 178.657C315.809 178.657 313.841 180.941 313.841 184.392C313.841 187.843 315.759 190.127 318.748 190.127C320.741 190.127 322.012 189.208 322.61 187.719L322.759 189.854H326.77V188.166H325.823C325.574 188.166 325.45 188.091 325.45 187.595L325.475 187.57ZM322.435 184.541C322.435 186.974 321.339 188.215 319.72 188.215C318.101 188.215 316.98 186.974 316.98 184.541V184.193C316.98 181.785 318.051 180.519 319.72 180.519C321.389 180.519 322.435 181.785 322.435 184.193V184.541Z" fill="#0C4C3B"/>
<path d="M332.873 178.657C329.51 178.657 327.193 180.99 327.193 184.392C327.193 187.793 329.186 190.127 333.172 190.127C335.987 190.127 337.482 188.737 338.08 186.999L336.361 186.229C335.838 187.545 334.941 188.339 333.397 188.339C331.354 188.339 330.357 186.999 330.283 184.963H338.229V184.392C338.229 180.792 336.311 178.657 332.873 178.657ZM330.258 183.448C330.382 181.288 331.304 180.395 332.873 180.395C334.443 180.395 335.165 181.264 335.19 183.448H330.258Z" fill="#0C4C3B"/>
<path d="M350.511 187.57V182.728C350.511 179.997 349.265 178.657 346.974 178.657C345.255 178.657 343.959 179.377 343.262 180.891V178.731C342.763 178.831 341.767 178.955 340.671 178.955H338.927V180.643H339.923C340.222 180.643 340.297 180.767 340.297 181.313V187.595C340.297 188.116 340.173 188.166 339.923 188.166H338.927V189.854H344.582V188.166H343.71C343.461 188.166 343.336 188.091 343.336 187.595V184.193C343.336 181.76 344.208 180.643 345.728 180.643C346.974 180.643 347.522 181.288 347.522 182.803V187.595C347.522 188.116 347.397 188.166 347.148 188.166H346.276V189.854H351.931V188.166H350.935C350.685 188.166 350.561 188.091 350.561 187.595L350.511 187.57Z" fill="#0C4C3B"/>
<path d="M361.647 187.57V174.759C361.124 174.883 360.127 174.982 359.031 174.982H357.187V176.671H358.234C358.508 176.671 358.607 176.795 358.607 177.341V187.57C358.607 188.091 358.483 188.141 358.234 188.141H357.237V189.829H362.917V188.141H362.02C361.796 188.141 361.672 188.066 361.672 187.57H361.647Z" fill="#0C4C3B"/>
<path d="M364.686 176.1C364.686 177.093 365.433 177.937 366.579 177.937C367.725 177.937 368.473 177.093 368.473 176.1C368.473 175.106 367.675 174.262 366.579 174.262C365.483 174.262 364.686 175.106 364.686 176.1Z" fill="#0C4C3B"/>
<path d="M368.099 187.57V178.731C367.576 178.831 366.579 178.955 365.483 178.955H363.69V180.643H364.561C364.935 180.643 365.06 180.842 365.06 181.537V187.595C365.06 188.066 364.96 188.166 364.711 188.166H363.69V189.854H369.419V188.166H368.473C368.223 188.166 368.124 188.066 368.124 187.595L368.099 187.57Z" fill="#0C4C3B"/>
<path d="M374.501 178.135C374.501 176.72 374.9 176.398 375.971 176.398C376.295 176.398 376.743 176.497 376.918 176.596V174.958C376.619 174.784 375.896 174.56 375 174.56C372.558 174.56 371.537 175.529 371.537 178.16V178.955H370.067V180.643H371.537V187.595C371.537 188.116 371.412 188.166 371.163 188.166H370.167V189.854H376.071V188.166H374.9C374.651 188.166 374.526 188.091 374.526 187.595V180.643H376.469V178.955H374.476V178.135H374.501Z" fill="#0C4C3B"/>
<path d="M382.498 178.657C379.135 178.657 376.818 180.99 376.818 184.392C376.818 187.793 378.811 190.127 382.797 190.127C385.612 190.127 387.107 188.737 387.705 186.999L385.986 186.229C385.463 187.545 384.566 188.339 383.021 188.339C380.978 188.339 379.982 186.999 379.907 184.963H387.854V184.392C387.854 180.792 385.936 178.657 382.498 178.657ZM379.882 183.448C380.007 181.288 380.929 180.395 382.498 180.395C384.067 180.395 384.79 181.264 384.815 183.448H379.882Z" fill="#0C4C3B"/>
<path d="M314.314 0C307.264 0.372409 300.762 5.68544 297.623 13.3819C297.249 12.9102 291.246 5.61095 282.178 6.62887C274.729 7.44817 268.451 13.4564 267.006 21.4756C265.985 20.1349 258.785 10.924 246.728 10.4771C235.767 10.0799 225.254 17.106 220.645 28.1541C215.214 17.7515 207.367 10.6012 200.267 10.4771C197.726 10.4274 194.886 11.0729 194.886 11.0729C190.527 12.066 186.516 14.2012 183.277 17.3046C178.768 13.0591 172.69 10.4771 166.188 10.4771H163.447C160.757 10.4771 151.938 10.8247 145.859 17.2798C140.678 22.7914 140.304 29.7927 140.155 32.7968C139.233 50.4986 161.081 84.5119 197.053 98.4151C237.959 114.205 284.245 98.9862 308.933 73.6624C311.399 71.13 313.318 68.8459 314.638 67.1577C314.862 66.9839 315.061 66.8101 315.286 66.6363C318.225 64.2032 318.748 59.8833 316.456 56.8295L315.41 55.4392C317.428 53.6268 318.948 51.3179 319.745 48.6614C320.268 46.9235 320.442 45.1111 320.293 43.3483C329.461 38.8298 334.941 29.5941 334.119 20.3087C333.222 10.2785 324.951 -0.521372 314.364 0.0496545" fill="white"/>
<path d="M160.458 18.7942H163.796C169.8 18.7942 175.081 22.7418 176.725 28.5017C181.558 45.409 195.036 78.8762 226.45 83.3699C269.722 89.5519 296.078 71.8997 305.595 63.8308C305.944 63.5329 306.417 64.0046 306.118 64.3522C295.431 76.5424 260.753 109.438 208.388 94.0704C171.444 83.2209 154.977 55.5882 147.902 36.9926C144.564 28.2038 151.016 18.7694 160.458 18.7694" fill="#005642"/>
<path d="M315.659 51.3179C315.659 51.3179 269.497 96.7269 221.368 74.0596C201.787 64.8487 191.922 49.0089 186.989 36.645C183.576 28.1044 189.929 18.7942 199.171 18.7942C205.125 18.7942 210.307 22.8162 211.826 28.5761C215.09 40.8904 223.659 61.2984 245.457 68.2252C271.142 76.3934 315.684 51.3179 315.684 51.3179" fill="#F79D21"/>
<path d="M247.575 18.7942C255.273 18.7942 262.373 22.9652 265.96 29.7678C267.729 33.1195 270.045 36.6698 272.91 39.4753C275.576 42.107 278.491 43.9442 281.555 45.2104C288.306 47.9662 287.758 57.6488 280.783 59.784C267.554 63.8308 252.856 65.3204 240.201 59.2874C238.607 58.5178 237.087 57.6488 235.667 56.6805C218.752 45.2352 227.147 18.7942 247.575 18.7942Z" fill="#EE6F25"/>
<path d="M293.637 17.7763L311.25 40.0463C312.471 41.6105 311.823 43.8946 309.954 44.5401C302.979 46.9483 287.309 49.58 275.476 31.1334C275.252 30.8106 275.053 30.463 274.853 30.1403C267.928 18.1736 285.067 6.90199 293.637 17.7515" fill="#E94F40"/>
<path d="M326.745 18.7942C326.745 24.8768 321.788 29.8175 315.684 29.8175C309.581 29.8175 304.623 24.8768 304.623 18.7942C304.623 12.7115 309.581 7.77087 315.684 7.77087C321.788 7.77087 326.745 12.7115 326.745 18.7942Z" fill="#A5CD3F"/>
</svg>
