<svg width="131" height="20" viewBox="0 0 131 20" fill="none" xmlns="http://www.w3.org/2000/svg">
<path d="M0.209932 7.50297C0.623856 5.91047 1.52625 4.75055 2.91907 4.02512C4.3119 3.2997 5.78907 3.21739 7.35453 3.78204C8.91999 4.3486 10.1088 5.38985 10.919 6.90961C11.7311 8.42937 11.9293 9.9855 11.5153 11.5761C11.1014 13.1686 10.199 14.3285 8.80621 15.0558C7.41338 15.7832 5.9362 15.8636 4.37075 15.2989C2.80529 14.7324 1.61649 13.6911 0.806296 12.1714C-0.00585748 10.6516 -0.203992 9.09547 0.209932 7.50297ZM7.09166 8.8964C6.39525 7.55465 5.67922 6.49617 4.94161 5.72098C4.204 4.94579 3.66257 4.64719 3.31338 4.82329C2.96615 5.00129 2.91515 5.60422 3.16429 6.63016C3.41343 7.65609 3.89209 8.8409 4.60616 10.1827C5.31826 11.5072 6.04214 12.5618 6.77975 13.3466C7.51735 14.1314 8.05879 14.4338 8.40798 14.2558C8.73951 14.0778 8.78463 13.4729 8.5453 12.4374C8.30597 11.4038 7.82142 10.2228 7.09166 8.89832V8.8964Z" fill="white"/>
<path d="M13.1298 18.7404C12.7983 18.4495 12.5668 18.1107 12.4334 17.7222C12.3 17.3336 12.304 16.947 12.4452 16.5584C12.5864 16.1699 12.8807 15.8559 13.328 15.6129C13.6419 15.4521 14.0107 15.3545 14.4344 15.3219C14.8562 15.2894 15.2662 15.3219 15.6644 15.4195C16.0626 15.5172 16.4216 15.7066 16.7453 15.9899C17.069 16.2732 17.2887 16.6158 17.4044 17.0197C16.8571 17.1824 16.5766 17.4638 16.5589 17.8676C16.5589 18.3193 16.8905 18.6524 17.5535 18.861C17.9675 18.9912 18.4638 19.0467 19.0444 19.0314C19.7565 19.0161 20.2823 18.817 20.6217 18.438C20.961 18.059 21.065 17.6379 20.9316 17.1766C20.7982 16.7154 20.4687 16.3574 19.937 16.0971C19.5721 15.9191 19.0503 15.7545 18.3716 15.5995C17.6928 15.4463 17.0749 15.3162 16.5197 15.2109C15.9645 15.1056 15.4133 14.9085 14.8679 14.6175C14.3206 14.3266 13.9243 13.9476 13.6752 13.4787C13.4261 13.0423 13.3849 12.5733 13.5516 12.0719C13.7164 11.5704 14.0813 11.1588 14.6443 10.8354C13.8831 10.3511 13.3103 9.74818 12.9297 9.0285C12.5492 8.30881 12.3864 7.60252 12.4452 6.90772C12.5021 6.21292 12.8513 5.56214 13.4888 4.95538C14.1264 4.34862 15.0092 3.91796 16.1352 3.65765C18.0891 3.20593 19.8546 3.4471 21.4279 4.38499C22.0243 3.54472 22.7482 2.99156 23.6015 2.72359C24.4549 2.45753 25.2199 2.61449 25.9007 3.19636C26.2145 3.51984 26.3734 3.89116 26.3734 4.31226C26.3734 4.73335 26.2361 5.07979 25.9634 5.35542C25.6908 5.63104 25.3416 5.82819 24.9198 5.94878C24.498 6.06936 24.0292 6.00237 23.5152 5.74206C23.7133 5.37073 23.7506 5.05491 23.627 4.79651C23.5034 4.53812 23.3033 4.40413 23.0307 4.39648C22.758 4.38882 22.4873 4.46538 22.2224 4.62616C22.1557 4.69124 22.0988 4.75632 22.0478 4.81948C22.6265 5.25589 23.0915 5.75737 23.4387 6.32202C23.7859 6.88858 23.9801 7.46088 24.0233 8.04276C24.0645 8.62463 23.9644 9.17779 23.7251 9.70416C23.4858 10.2305 23.0287 10.6861 22.3578 11.0746C21.6869 11.4632 20.8375 11.7216 19.8115 11.8498C18.1872 12.0431 16.7296 11.8498 15.4388 11.2679C15.223 11.446 15.1445 11.6565 15.2034 11.8977C15.2603 12.1408 15.4388 12.3417 15.737 12.5044C16.0018 12.6499 16.3333 12.7379 16.7316 12.7705C17.1298 12.803 17.5339 12.7954 17.9498 12.7456C18.3637 12.6977 18.8267 12.648 19.3407 12.6001C19.8546 12.5523 20.3431 12.5159 20.8061 12.491C21.269 12.4661 21.7575 12.5025 22.2715 12.6001C22.7854 12.6977 23.2484 12.8662 23.6623 13.1093C24.6726 13.6911 25.2356 14.5352 25.3514 15.6435C25.4671 16.7517 25.0689 17.7011 24.1587 18.4916C23.4799 19.0735 22.3735 19.4888 20.8414 19.7396C19.3093 19.9903 17.7929 20.0229 16.2941 19.8372C14.7953 19.6515 13.738 19.284 13.1259 18.7347L13.1298 18.7404ZM19.4898 7.46663C19.0425 6.61104 18.5089 5.8703 17.887 5.24823C17.2652 4.62616 16.7394 4.37159 16.3098 4.48452C15.9292 4.59745 15.7801 5.02237 15.8625 5.75737C15.9449 6.49237 16.2196 7.28096 16.6825 8.12123C17.2632 9.18736 17.8498 9.96447 18.4461 10.4487C19.0425 10.933 19.5153 11.1033 19.8625 10.9579C20.0783 10.8603 20.2195 10.6669 20.2843 10.376C20.351 10.0851 20.3176 9.68502 20.1842 9.17588C20.0508 8.66674 19.8193 8.09635 19.4878 7.46663H19.4898Z" fill="white"/>
<path d="M31.9879 -3.90663e-05C31.672 0.953162 31.4916 3.14285 31.4406 6.56901C32.086 4.84062 32.9648 3.83765 34.0752 3.56202C34.9697 3.33617 35.8054 3.48929 36.5842 4.02331C37.363 4.55733 37.8887 5.34784 38.1614 6.39866C38.4341 7.44948 38.4792 8.5003 38.2987 9.55111C38.1163 10.6019 37.7926 11.5226 37.3296 12.315C36.7333 13.318 35.98 14.1219 35.0678 14.7267C34.1575 15.3335 33.1296 15.611 31.9859 15.5632H26.3715C26.8521 14.432 27.0914 12.0796 27.0914 8.50795C27.0914 4.93632 26.8521 2.65667 26.3715 1.67093C27.266 1.558 28.2724 1.33597 29.3906 1.00484C30.5087 0.67371 31.3739 0.338749 31.9879 -0.00195312V-3.90663e-05ZM32.957 6.13261C32.5921 6.14792 32.2704 6.40823 31.9879 6.9078C31.7054 7.40928 31.5151 8.05623 31.417 8.84674C31.4327 11.4805 31.5583 13.429 31.7897 14.6884C32.5842 13.8807 33.214 12.782 33.6789 11.3924C34.1418 10.0028 34.3125 8.77401 34.1889 7.70788C34.0653 6.64174 33.6553 6.11538 32.9589 6.13261H32.957Z" fill="white"/>
<path d="M50.6968 11.492C50.6478 11.8959 50.5438 12.2806 50.3869 12.6443C50.2299 13.008 50.0357 13.3429 49.8023 13.6511C49.5708 13.9573 49.3021 14.2406 48.9941 14.499C48.688 14.7574 48.3487 14.9833 47.9759 15.1785C47.6032 15.3718 47.2089 15.5269 46.795 15.6398C45.1393 16.0762 43.5895 15.8657 42.1496 15.0101C41.3218 14.5258 40.6626 13.8904 40.1742 13.1075C39.6857 12.3247 39.3875 11.5112 39.2796 10.6709C39.1717 9.83063 39.2247 8.97888 39.4405 8.11372C39.6563 7.24857 40.0074 6.47337 40.4959 5.78623C40.9843 5.09908 41.6337 4.54209 42.4458 4.11334C43.258 3.68459 44.1427 3.47021 45.104 3.47021C46.5949 3.47021 47.8778 3.98701 48.9548 5.02252C50.0318 6.05611 50.636 7.34236 50.7694 8.87743H42.5694C42.9833 9.66985 43.5679 10.3359 44.3212 10.8776C45.0745 11.4193 45.9985 11.7791 47.0912 11.9572C48.1839 12.1352 49.3844 11.982 50.6949 11.4959L50.6968 11.492ZM42.2732 5.01869C41.9593 5.08377 41.7847 5.39384 41.7514 5.95275C41.718 6.50974 41.8671 7.21029 42.1987 8.05056H45.5532C45.2393 7.16243 44.7332 6.41021 44.0368 5.7958C43.3404 5.18138 42.7538 4.92299 42.2732 5.0206V5.01869Z" fill="white"/>
<path d="M56.3113 9.98746C56.3113 12.6863 56.5271 14.5448 56.9567 15.5631H51.3168C51.5973 14.9487 51.8013 14.0835 51.9249 12.9696C52.0485 11.8537 52.0936 10.7512 52.0622 9.66016C52.0289 8.56914 51.9465 7.55469 51.8131 6.61872C51.6797 5.68083 51.5149 5.04345 51.3168 4.70274C53.0392 4.54196 54.7047 4.18595 56.3113 3.63661V7.97578C56.9234 5.77844 57.7277 4.38692 58.7223 3.80505C59.0362 3.62704 59.3853 3.51028 59.7659 3.45286C60.1465 3.39736 60.5408 3.42032 60.9469 3.5256C61.353 3.63087 61.7218 3.81653 62.0533 4.08259C62.3848 4.34864 62.6575 4.75251 62.8733 5.29419C63.0891 5.83587 63.197 6.47899 63.197 7.22164C63.197 7.2695 63.193 7.55278 63.1852 8.06957C63.1774 8.58637 63.1774 9.00363 63.1852 9.31754C63.193 9.63336 63.2009 10.0851 63.2107 10.6746C63.2186 11.2641 63.2362 11.7694 63.2597 12.1905C63.2853 12.6116 63.3225 13.0557 63.3716 13.5246C63.4206 13.9936 63.4834 14.4013 63.5579 14.7496C63.6325 15.098 63.7266 15.3679 63.8443 15.5612H58.4025C58.5673 15.3507 58.7085 14.7496 58.8243 13.7543C58.94 12.7609 59.0146 11.7101 59.0479 10.6038C59.0813 9.49746 59.0263 8.49449 58.8871 7.5968C58.7458 6.69911 58.5104 6.2359 58.1789 6.20337C57.814 6.18805 57.4923 6.48665 57.2098 7.10106C56.9273 7.71547 56.6546 8.54809 56.3898 9.59891C56.3564 9.72906 56.3309 9.8573 56.3152 9.98746H56.3113Z" fill="white"/>
<path d="M69.8786 15.5631H64.4623C64.8272 14.7554 65.0508 13.806 65.1332 12.715C65.2156 11.624 65.1862 10.6383 65.0469 9.75779C64.9056 8.87732 64.7114 8.194 64.4623 7.70975C65.4726 7.70975 66.4711 7.60447 67.4559 7.39393C68.4407 7.18338 69.2489 6.86947 69.8786 6.44838C69.5137 7.35373 69.3117 8.78353 69.2705 10.7397C69.2293 12.6959 69.4313 14.3037 69.8786 15.565V15.5631ZM65.2685 5.83014C64.7467 5.45116 64.4858 4.98604 64.4858 4.43671C64.4858 3.88737 64.7467 3.41843 65.2685 3.02987C65.7904 2.64132 66.424 2.448 67.1695 2.448C67.9149 2.448 68.5525 2.64132 69.0821 3.02987C69.6118 3.41843 69.8766 3.88737 69.8766 4.43671C69.8766 4.98604 69.6118 5.45116 69.0821 5.83014C68.5525 6.21104 67.9149 6.40053 67.1695 6.40053C66.424 6.40053 65.7904 6.21104 65.2685 5.83014Z" fill="white"/>
<path d="M82.5239 20.0001H76.8584C77.29 18.5932 77.5077 15.8944 77.5175 11.9036C77.5254 7.91279 77.3057 5.15654 76.8584 3.63678H82.5239C82.3257 4.21865 82.1668 5.07615 82.0511 6.20736C82.7141 4.72014 83.5165 3.85498 84.462 3.61381C85.3566 3.38795 86.1923 3.5449 86.9711 4.08658C87.7499 4.62826 88.2756 5.43217 88.5483 6.4983C88.821 7.56443 88.8661 8.63247 88.6856 9.6986C88.5032 10.7647 88.1795 11.695 87.7165 12.4874C87.0868 13.5707 86.2747 14.4148 85.282 15.0216C84.2874 15.6284 83.1614 15.8504 81.902 15.6877C82.0334 17.7243 82.2414 19.1636 82.5239 20.002V20.0001ZM81.8784 15.1518C82.7396 14.4091 83.4321 13.3143 83.954 11.8672C84.4758 10.4202 84.6876 9.12438 84.5876 7.97595C84.4875 6.82751 84.0736 6.27052 83.3458 6.30306C82.9986 6.31837 82.6906 6.54998 82.4258 6.99404C82.1609 7.4381 81.9707 8.0238 81.8549 8.75114C81.7392 10.8853 81.747 13.0176 81.8804 15.1518H81.8784Z" fill="white"/>
<path d="M89.7548 7.50297C90.1687 5.91047 91.0711 4.75055 92.4639 4.02512C93.8568 3.2997 95.3339 3.21739 96.8994 3.78204C98.4648 4.3486 99.6536 5.38985 100.464 6.90961C101.276 8.42937 101.474 9.9855 101.06 11.5761C100.646 13.1686 99.7439 14.3285 98.3511 15.0558C96.9582 15.7832 95.4811 15.8636 93.9156 15.2989C92.3502 14.7324 91.1614 13.6911 90.3512 12.1714C89.539 10.6516 89.3409 9.09738 89.7548 7.50488V7.50297ZM96.6365 8.8964C95.9401 7.55465 95.2241 6.49617 94.4865 5.72098C93.7489 4.94579 93.2074 4.64719 92.8582 4.82329C92.511 5.00129 92.46 5.60422 92.7091 6.63016C92.9583 7.65609 93.4369 8.8409 94.151 10.1827C94.8631 11.5072 95.587 12.5618 96.3246 13.3466C97.0622 14.1314 97.6037 14.4338 97.9528 14.2558C98.2844 14.0778 98.3295 13.4729 98.0902 12.4374C97.8508 11.4038 97.3663 10.2228 96.6365 8.89832V8.8964Z" fill="white"/>
<path d="M103.669 5.4551C103.95 4.89046 104.419 4.42151 105.074 4.04827C105.727 3.67694 106.424 3.44726 107.161 3.35729C107.899 3.26925 108.619 3.26925 109.323 3.35729C110.027 3.44726 110.62 3.68077 111.1 4.05975C111.581 4.43874 111.828 4.90385 111.846 5.45319C111.861 5.8092 111.759 6.12311 111.536 6.39873C111.312 6.67436 111.022 6.86385 110.667 6.96912C110.31 7.0744 109.937 7.11076 109.549 7.07822C109.158 7.04569 108.791 6.91744 108.442 6.68967C108.095 6.46381 107.83 6.14799 107.648 5.74413C108.128 5.61588 108.423 5.41682 108.53 5.15077C108.638 4.88471 108.576 4.64546 108.344 4.43491C108.113 4.22436 107.807 4.11143 107.424 4.09612C106.977 4.08081 106.653 4.22245 106.455 4.52104C106.257 4.81964 106.19 5.12397 106.257 5.43022C106.272 5.51061 106.294 5.58335 106.32 5.64842C106.345 5.7135 106.386 5.78241 106.443 5.85514C106.5 5.92788 106.551 5.99295 106.592 6.04846C106.633 6.10588 106.696 6.16522 106.779 6.2303C106.861 6.29537 106.924 6.34705 106.965 6.38725C107.006 6.42744 107.085 6.48869 107.2 6.56909C107.316 6.64948 107.395 6.70307 107.436 6.72604C107.477 6.75092 107.563 6.8026 107.697 6.88299C107.828 6.96338 107.912 7.0208 107.946 7.05334C109.851 8.26494 111.01 9.02482 111.424 9.33299C112.054 9.7847 112.538 10.2211 112.878 10.6422C113.217 11.0633 113.429 11.5399 113.511 12.072C113.611 12.719 113.507 13.297 113.201 13.8061C112.895 14.3153 112.444 14.723 111.848 15.0311C111.251 15.3393 110.596 15.569 109.884 15.7221C109.172 15.8752 108.426 15.9614 107.648 15.9767C105.511 16.0092 103.969 15.7259 103.026 15.1288C102.082 14.5316 101.625 13.7947 101.659 12.9218C101.674 12.4051 101.886 11.9763 102.292 11.6375C102.698 11.2987 103.244 11.1207 103.932 11.1035C104.619 11.0882 105.419 11.3217 106.329 11.806C105.949 12.0969 105.717 12.4491 105.633 12.8606C105.551 13.2721 105.596 13.6492 105.77 13.988C105.945 14.3268 106.237 14.6139 106.653 14.8493C107.067 15.0828 107.53 15.1919 108.044 15.1766C108.656 15.1441 109.088 14.8933 109.337 14.4244C109.468 14.2311 109.515 14.0243 109.474 13.8061C109.433 13.5879 109.362 13.3946 109.262 13.2243C109.162 13.0539 109.009 12.8721 108.803 12.6788C108.595 12.4854 108.385 12.3074 108.169 12.1447C107.954 11.984 107.705 11.8174 107.424 11.6471C107.142 11.4767 106.89 11.3274 106.667 11.1992C106.443 11.071 106.212 10.937 105.97 10.7992C105.731 10.6613 105.535 10.5369 105.386 10.424C104.723 9.95506 104.215 9.42295 103.858 8.82385C103.501 8.22666 103.318 7.64861 103.31 7.08971C103.302 6.53272 103.422 5.98721 103.671 5.45319L103.669 5.4551Z" fill="white"/>
<path d="M119.495 10.4488C119.577 13.0998 119.759 14.8052 120.042 15.5632H114.427C114.908 14.432 115.147 12.0796 115.147 8.50795C115.147 4.93632 114.908 2.65667 114.427 1.67093C115.322 1.558 116.328 1.33597 117.446 1.00484C118.565 0.67371 119.43 0.338749 120.044 -0.00195312C119.861 0.547382 119.716 1.63074 119.608 3.2462C119.5 4.86167 119.455 6.60729 119.471 8.48307C119.769 7.28678 120.116 6.29721 120.515 5.51245C120.913 4.7296 121.417 4.15921 122.031 3.8032C122.329 3.62519 122.669 3.50843 123.049 3.45101C123.43 3.3955 123.824 3.41847 124.23 3.52374C124.636 3.62902 125.005 3.81468 125.337 4.08073C125.668 4.34679 125.941 4.75065 126.157 5.29233C126.372 5.83401 126.48 6.47714 126.48 7.21979V9.3176C126.48 9.63342 126.484 10.0851 126.492 10.6747C126.5 11.2642 126.521 11.7695 126.555 12.1906C126.588 12.6117 126.625 13.0558 126.667 13.5247C126.708 13.9936 126.771 14.4013 126.853 14.7497C126.935 15.0981 127.028 15.3679 127.126 15.5613H121.709C121.925 15.2703 122.102 14.3688 122.243 12.8586C122.384 11.3484 122.396 9.86885 122.28 8.42182C122.164 6.97479 121.892 6.23596 121.46 6.20342C121.095 6.18811 120.774 6.48671 120.491 7.10112C120.209 7.71553 119.944 8.54815 119.697 9.59897C119.63 9.85736 119.563 10.1406 119.498 10.4469L119.495 10.4488Z" fill="white"/>
<path d="M130.576 15.7086C130.294 15.9842 129.954 16.1201 129.558 16.1201C129.162 16.1201 128.824 15.9823 128.552 15.7086C128.279 15.4349 128.142 15.1076 128.142 14.7267C128.142 14.3458 128.279 14.0204 128.552 13.7448C128.824 13.4711 129.16 13.3333 129.558 13.3333C129.956 13.3333 130.296 13.4711 130.576 13.7448C130.857 14.0204 130.998 14.3477 130.998 14.7267C130.998 15.1057 130.857 15.4349 130.576 15.7086Z" fill="white"/>
</svg>
